<?xml version="1.0" standalone="no"?><!DOCTYPE svg PUBLIC "-//W3C//DTD SVG 1.1//EN" "http://www.w3.org/Graphics/SVG/1.1/DTD/svg11.dtd"><svg t="1769134295327" class="icon" viewBox="0 0 1124 1024" version="1.1" xmlns="http://www.w3.org/2000/svg" p-id="43714" xmlns:xlink="http://www.w3.org/1999/xlink" width="329.296875" height="300"><path d="M468.128627 426.907608c24.214588-7.710118 52.464941-42.445804 48.429177-57.866039 0-1.927529-4.035765-5.802667-10.099451-7.710118-6.043608-1.927529-16.143059-3.83498-46.421333-3.83498-34.293961 0-38.349804 0-40.357647 3.814902-4.015686 5.802667-42.36549 67.523765-42.365491 69.471372 0 1.907451 78.707451 0 90.814745-3.875137m88.766746-23.150432c-24.19451 30.860549-52.444863 54.01098-86.738824 63.648628-16.143059 5.822745-22.206745 5.822745-72.643765 7.730196l-52.485019 1.927529-26.222432 42.425726-26.222431 42.445804h-24.234667c-14.095059 0-24.19451 0-24.19451-1.947608 0 0 8.071529-13.492706 18.150902-30.860549 14.135216-23.150431 84.751059-135.007373 125.128785-202.511059l10.079372-15.440314h70.615843c90.774588 0 104.909804 1.947608 112.981334 21.222902 4.055843 17.367843-2.007843 42.425725-24.214588 71.358745M264.312471 455.840627c-2.007843 1.947608-18.150902 1.947608-76.659451 1.947608H113.001412L80.715294 509.851608l-30.278274 52.083451H24.214588c-14.135216 0-24.214588 0-24.214588-1.947608C40.357647 492.483765 84.73098 421.104941 96.858353 405.684706c10.099451-13.492706 24.214588-28.912941 36.301804-42.445804C165.446275 332.398431 189.680941 320.853333 232.046431 315.050667c12.107294-1.927529 40.357647-3.875137 70.615844-3.875138h50.457098l-4.035765 7.730196c-2.007843 3.855059-8.071529 13.492706-14.135216 21.222902l-8.071529 13.492706h-113.001412l-16.143059 7.710118c-8.051451 3.855059-20.158745 11.565176-28.250353 17.367843-12.107294 13.492706-28.250353 32.768-28.250353 34.715608 0 1.927529 32.286118 1.927529 72.643765 1.927529h72.643765c0 1.927529-18.17098 34.715608-22.206745 40.498196m419.719529-94.509176a61.660863 61.660863 0 0 0-32.286118 30.860549c-4.035765 9.637647-4.035765 15.420235 2.007843 19.275294 2.027922 1.947608 28.250353 1.947608 56.500706 3.875137 28.250353 0 56.500706 1.927529 60.536471 3.855059 14.115137 3.855059 20.178824 11.585255 20.178823 23.130353 0 28.953098-38.349804 81.016471-70.635921 98.384314-30.258196 17.347765-34.293961 17.347765-131.152314 17.347765h-86.738823l12.107294-21.222902c8.051451-11.565176 14.115137-21.202824 16.143059-23.130353 2.007843 0 36.301804-1.947608 76.659451-1.947608 70.615843 0 74.651608 0 84.73098-3.855059 24.234667-9.637647 40.357647-42.405647 26.24251-50.115765-4.035765-1.947608-22.206745-3.875137-58.508549-3.875137-40.357647-1.927529-54.492863-1.927529-60.536471-3.855059-18.17098-7.730196-22.206745-25.077961-8.071529-52.083451 26.24251-54.01098 64.572235-82.923922 119.045019-88.70651 12.107294 1.907451 157.374745 1.907451 157.374745 1.907451s-24.19451 42.445804-26.222431 42.445804c0 0-34.293961 0-72.643765 1.92753-70.615843 1.947608-74.651608 1.947608-84.73098 5.782588" fill="#575755" p-id="43715"></path><path d="M784.464314 12.789961c18.070588 0 28.149961 1.987765 42.204862 3.975529 28.109804 5.963294 34.133333 5.963294 34.133334 9.938824 36.141176 9.938824 355.488627 105.331451 218.915137 397.43247l6.023529-23.833098s-28.109804 45.69851-56.219607 61.600628c2.007843-1.987765 24.094118-41.743059-4.015687-11.926589 0-1.987765 20.078431-39.735216 22.086275-77.502745 0-1.987765-6.023529-45.69851-14.074981-3.955451 0 0 14.054902 61.580549-54.211764 89.409255 0 0 52.203922-89.409255 18.070588-170.907608 0 1.987765 16.062745 121.233569-60.235294 200.724079 0 0 52.203922-79.510588 14.054902-51.681882 0-1.987765-20.09851 47.686275-68.306824 71.559529 0 0 120.510745-210.662902-14.054902-339.827451-2.007843 0-6.023529-3.975529-16.062745-11.926588-2.007843-2.007843-4.015686-3.975529-6.023529-3.97553-8.031373-5.943216-18.070588-11.90651-26.101961-17.869804-2.027922 0-4.015686-2.007843-6.023529-2.007843-12.067137-5.943216-50.236235-19.857569-70.314667-25.820862-28.109804-7.951059-48.188235-9.938824-90.352941-7.951059-44.212706 2.007843-58.287686 3.975529-98.424471 13.914353-48.228392 11.926588-144.624941 49.674039-166.711215 65.576157l-6.02353 3.975529 16.062745 5.963294c20.078431 5.963294 20.078431 5.963294 16.062745 9.918745-4.015686 2.007843-66.278902 19.877647-100.412235 29.836549-26.101961 5.963294-42.164706 9.918745-42.164706 5.963294 0-5.963294 24.094118-39.755294 64.250981-95.392627l18.070588-21.88549v33.792l22.086274-17.869804c28.129882-17.869804 70.314667-41.743059 104.448-57.625098 24.094118-11.946667 100.412235-39.755294 106.455843-39.755294 2.007843 0 6.023529 0 8.031373-1.987765 4.015686-2.007843 38.14902-7.951059 82.341647-15.902118 12.047059-1.987765 40.156863-3.975529 62.243137-3.975529h44.212706z" fill="#2D79AB" p-id="43716"></path><path d="M1085.741176 472.746667c3.995608 0 9.999059 5.903059 9.999059 11.786039 0 3.915294-2.007843 13.713569-4.015686 21.584314-2.007843 9.798275-9.999059 50.999216-16.00251 92.200156-26.021647 145.167059-48.047686 251.100863-58.046745 282.483451l-4.015686 11.765961-3.97553-5.88298c-2.007843-3.935373-10.019137-21.584314-18.030431-39.233255-8.011294-17.66902-14.014745-33.370353-14.014745-33.370353s-3.995608 1.967686-6.003451 3.935373c-4.015686 1.947608-6.023529 3.915294-8.031373 3.915294-1.967686 0-11.986824 7.830588-23.993725 17.669019-12.02698 9.818353-30.037333 23.531922-40.056471 31.382589-19.998118 13.733647-34.012863 23.552-44.011921 33.350274-6.023529 5.88298-30.037333 17.66902-88.104157 49.031529-6.003451 1.967686-19.998118 9.818353-32.00502 13.753726-6.023529 1.947608-12.02698 3.915294-18.030431 7.830588C665.359059 1014.201725 591.309804 1024 531.275294 1024h-2.007843c-22.026039 0-42.044235-1.967686-58.026667-3.915294 98.063059 3.915294 226.163451-66.720627 226.163451-66.720628-6.003451 1.967686-12.006902 3.915294-16.00251 5.882981-16.022588 5.903059-26.021647 9.818353-26.021647 9.818353s-2.007843 0-2.007843 1.967686c-2.007843 1.967686-52.043294 19.616627-62.042353 21.584314-8.031373 1.947608-12.006902 1.947608-14.014745 3.915294-2.007843 0-6.023529 1.967686-10.019137 1.967686s-9.999059 1.947608-12.006902 1.947608h-4.015686c0-1.947608 2.007843-1.947608 6.023529-1.947608 3.995608 0 3.995608 0 0-1.967686-6.023529-1.967686-6.023529-1.967686 0-1.967686 1.987765 0 6.003451 0 6.003451 1.967686 2.007843 1.967686 12.006902 0 14.014745-3.915294 2.007843-1.967686 2.007843-1.967686 0-3.915294C313.062902 1041.66902 194.961569 922.001569 194.961569 922.001569c-66.078118-58.869961-22.026039-60.837647-24.033883-60.837647 126.092549 123.602824 208.173176 88.284863 208.173177 88.284862-320.25098-72.583529-260.216471-341.333333-260.216471-341.333333C132.899137 839.579608 291.036863 845.502745 289.02902 845.502745c-162.133333-90.232471-144.12298-168.719059-144.122981-168.719059 8.011294 88.284863 136.111686 131.433412 138.11953 135.368785 114.105725 25.499608 208.173176 7.830588 272.243451-13.733647-4.015686-1.947608 2.007843-5.88298 8.011294-3.915295h2.007843c2.007843-1.967686 5.983373-1.967686 7.991216-3.915294h-8.011295c0-1.967686 18.030431-7.850667 24.033883-7.850666 2.007843 0 2.007843-1.967686 4.015686-1.967687 0-1.967686 12.006902-7.830588 16.00251-7.830588h2.007843c1.987765-3.935373 18.010353-13.753725 24.013804-13.753725 2.007843 0 5.983373-1.947608 7.991216-3.915294 4.015686-1.967686 8.031373-3.935373 8.031372-1.967687h1.987765c0-1.967686 0-1.967686 2.007843-1.967686 6.003451 0 40.016314-17.66902 58.046745-31.382588 2.007843-1.967686 14.014745-11.765961 28.02949-21.584314 26.001569-19.616627 32.00502-23.552 44.032-33.330196 9.999059-7.830588 8.011294-7.830588-30.037333-17.66902-46.019765-9.818353-58.026667-13.733647-58.026667-15.701333v-1.947608c3.995608 0 78.044863-25.499608 82.060549-29.43498 2.007843-1.947608 9.999059-3.915294 14.014745-5.882981 4.015686-1.967686 26.021647-9.818353 44.032-17.669019 20.038275-7.830588 44.052078-17.648941 56.038902-21.564236 26.021647-7.850667 100.111059-39.233255 150.14651-62.785254 22.026039-11.745882 40.036392-19.616627 42.044235-19.616628" fill="#2D79AB" p-id="43717"></path></svg>