<?xml version="1.0" standalone="no"?><!DOCTYPE svg PUBLIC "-//W3C//DTD SVG 1.1//EN" "http://www.w3.org/Graphics/SVG/1.1/DTD/svg11.dtd"><svg t="1769075033466" class="icon" viewBox="0 0 1365 1024" version="1.1" xmlns="http://www.w3.org/2000/svg" p-id="10965" xmlns:xlink="http://www.w3.org/1999/xlink" width="266.6015625" height="200"><path d="M71.765333 540.586667H0.341333v208.64h38.826667v-59.733334h32.298667c43.434667 0 75.434667-33.152 75.434666-74.624 0-41.429333-32-74.282667-75.178666-74.282666h0.042666z m-2.858666 112.896H39.168v-76.842667h29.738667a37.546667 37.546667 0 0 1 38.826666 38.272 37.802667 37.802667 0 0 1-38.826666 38.570667zM293.845333 602.026667c-11.989333-14.293333-31.701333-23.466667-53.717333-23.466667-42.325333 0-82.858667 31.744-82.858667 87.168 0 55.466667 42.026667 86.912 82.304 86.912 22.016 0 42.026667-9.728 54.272-25.173333v21.76h38.613334V581.973333h-38.613334v20.010667z m-48 115.157333c-28.544 0-50.56-22.869333-50.56-52.010667 0-29.098667 22.016-51.413333 50.56-51.413333 28.586667 0 50.005333 23.125333 50.005334 51.413333s-21.418667 52.010667-50.005334 52.010667zM435.626667 694.613333L389.034667 581.973333h-41.130667l68.565333 158.890667-35.157333 85.461333h39.168l99.712-244.352h-40.576L435.626667 694.613333zM1130.112 372.693333h-1.109333l-44.8-153.173333h-72.448v193.152h48l-2.688-158.464h1.024l48.213333 158.464h69.461333V219.52h-48.298666l2.645333 153.173333zM252.16 237.653333l1.066667-0.042666 26.026666 177.066666h52.394667l-35.925333-195.157333H208.938667L172.714667 414.72h52.736l26.709333-177.066667zM503.722667 219.52l-24.064 149.248h-1.109334l-24.021333-149.248H374.912l-4.266667 195.157333H419.413333l1.28-175.445333h1.024l32.597334 175.445333h49.493333l32.597333-175.36 1.109334-0.085333 1.194666 175.445333h48.853334l-4.309334-195.157333h-79.530666zM70.912 422.314667c35.285333 0 64.341333-12.032 68.949333-44.629334a94.976 94.976 0 0 0-0.213333-32C131.413333 304.853333 57.386667 292.693333 51.882667 269.781333a25.728 25.728 0 0 1-0.256-10.24c1.408-6.229333 5.632-13.098667 17.877333-13.098666 11.392 0 18.133333 7.04 18.133333 17.664v12.117333h48.682667V262.4C136.32 219.989333 98.133333 213.333333 70.528 213.333333 35.84 213.333333 7.466667 224.853333 2.261333 256.64c-1.408 8.746667-1.578667 16.512 0.469334 26.325333 8.448 39.850667 77.824 51.413333 87.850666 76.629334 1.92 4.693333 1.28 10.752 0.384 14.464-1.621333 6.485333-5.973333 13.141333-18.986666 13.141333-12.202667 0-19.626667-7.082667-19.626667-17.706667v-18.944H0v15.061334c0 43.52 34.261333 56.704 70.912 56.704zM686.677333 270.336a25.258667 25.258667 0 0 1-0.256-10.112c1.365333-6.229333 5.589333-13.013333 17.664-13.013333 11.392 0 17.962667 6.954667 17.962667 17.493333v11.946667h48.213333v-13.568c0-42.112-37.802667-48.64-65.152-48.64-34.304 0-62.378667 11.349333-67.498666 42.837333-1.450667 8.661333-1.621333 16.341333 0.426666 26.026667 8.32 39.509333 77.013333 50.944 86.954667 75.946666 1.877333 4.693333 1.28 10.666667 0.426667 14.293334-1.578667 6.4-5.973333 12.970667-18.858667 12.970666-12.117333 0-19.456-6.997333-19.456-17.536v-18.730666H635.306667v14.933333c0 43.093333 33.877333 56.064 70.229333 56.064 36.266667 0 63.701333-11.861333 68.266667-44.16 2.304-16.64 0.597333-27.605333-0.256-31.701333-8.106667-40.448-81.450667-52.48-86.869334-75.093334h0.042667zM957.354667 219.477333h-49.365334v144.384a40.661333 40.661333 0 0 1-0.469333 7.466667c-0.981333 4.821333-5.12 14.122667-18.730667 14.122667-13.568 0-17.792-9.301333-18.688-14.122667a36.992 36.992 0 0 1-0.512-7.466667V219.477333h-49.322666v139.946667c-0.085333 3.584 0.256 10.922667 0.426666 12.842667 3.413333 36.394667 32.213333 48.213333 68.096 48.213333 35.882667 0 64.682667-11.818667 68.053334-48.213333 0.170667-1.92 0.554667-9.258667 0.469333-12.842667v-139.946667h0.042667zM1296.213333 305.066667v28.501333h19.968v28.330667a40.96 40.96 0 0 1-0.426666 7.424c-0.896 5.205333-5.845333 14.122667-19.968 14.122666-14.08 0-19.029333-8.96-19.968-14.122666a41.429333 41.429333 0 0 1-0.426667-7.424V272.64c0-3.157333 0.213333-6.656 0.810667-9.216 1.066667-4.821333 5.248-14.165333 19.413333-14.165333 14.933333 0 18.645333 9.856 19.498667 14.165333 0.554667 2.816 0.597333 7.466667 0.597333 7.424v10.922667h49.237333v-6.485334s0.170667-6.656-0.426666-12.885333c-3.626667-36.565333-33.92-48.213333-68.522667-48.213333-34.56 0-64.128 11.733333-68.48 48.213333-0.384 3.285333-0.810667 9.386667-0.810667 12.885333v82.048c0 3.669333 0.085333 6.357333 0.64 12.842667 3.285333 35.541333 34.048 48.213333 68.608 48.213333 34.602667 0 65.408-12.672 68.650667-48.213333 0.597333-6.442667 0.682667-9.173333 0.682667-12.842667V305.024h-69.12v0.042667z" fill="#000000" p-id="10966"></path></svg>