<?xml version="1.0" standalone="no"?><!DOCTYPE svg PUBLIC "-//W3C//DTD SVG 1.1//EN" "http://www.w3.org/Graphics/SVG/1.1/DTD/svg11.dtd"><svg t="1769074856873" class="icon" viewBox="0 0 1599 1024" version="1.1" xmlns="http://www.w3.org/2000/svg" p-id="6457" xmlns:xlink="http://www.w3.org/1999/xlink" width="312.3046875" height="200"><path d="M1456.27902 0H143.242936c-5.469574 0-10.948812 0-16.408724 0.028991-4.609518 0.038654-9.209372 0.086972-13.818889 0.212598-10.040438 0.27058-20.167848 0.86972-30.082659 2.647815a101.564006 101.564006 0 0 0-28.584808 9.42197 95.978468 95.978468 0 0 0-42.036482 42.036482 101.109818 101.109818 0 0 0-9.42197 28.604135C1.091982 92.876466 0.502505 102.994212 0.231925 113.024987c-0.125626 4.609518-0.183608 9.209372-0.212598 13.818889C0 132.294123 0 137.763698 0 143.242936v737.503498c0 5.479238 0 10.939149 0.019327 16.418387 0.028991 4.599854 0.086972 9.209372 0.212598 13.81889 0.27058 10.011447 0.86972 20.138857 2.657479 30.053668a101.080828 101.080828 0 0 0 9.412307 28.604135 95.640244 95.640244 0 0 0 17.684313 24.352169 95.417982 95.417982 0 0 0 24.352168 17.684313c9.15139 4.667499 18.525043 7.634212 28.604135 9.441297 9.905148 1.768431 20.032558 2.367572 30.072996 2.638152 4.609518 0.106299 9.209372 0.173944 13.818889 0.193271 5.459911 0.038654 10.939149 0.038654 16.408724 0.038654h1313.036084c5.459911 0 10.939149 0 16.39906-0.038654a770.282291 770.282291 0 0 0 13.828553-0.193271c10.021111-0.27058 20.148521-0.86972 30.082659-2.638152a101.254772 101.254772 0 0 0 28.584808-9.441297 96.20073 96.20073 0 0 0 42.036482-42.036482c4.667499-9.15139 7.624548-18.525043 9.412306-28.604135 1.797422-9.914812 2.377236-20.042221 2.647815-30.053668 0.125626-4.609518 0.193271-9.219035 0.212599-13.81889 0.038654-5.479238 0.038654-10.939149 0.038654-16.418387V143.252599c0-5.479238 0-10.948812-0.038654-16.418387a609.451678 609.451678 0 0 0-0.212599-13.809225c-0.27058-10.030774-0.850393-20.148521-2.647815-30.072996a100.501014 100.501014 0 0 0-9.412306-28.604135 96.06544 96.06544 0 0 0-42.036482-42.036482A101.660641 101.660641 0 0 0 1516.589292 2.899068c-9.934139-1.787758-20.061549-2.377236-30.082659-2.647815a690.103742 690.103742 0 0 0-13.828553-0.212599C1467.218169 0 1461.738931 0 1456.27902 0z" p-id="6458"></path><path d="M1456.27902 34.131691l16.157471 0.02899c4.367929 0.028991 8.745521 0.077308 13.14244 0.193271 7.653539 0.212598 16.611658 0.628131 24.960973 2.125983 7.247669 1.30458 13.335711 3.28561 19.172501 6.261987a61.769469 61.769469 0 0 1 27.09662 27.12561c2.957049 5.798135 4.928415 11.847523 6.232995 19.162837 1.488188 8.252679 1.903721 17.230126 2.106656 24.931983 0.125626 4.348602 0.183608 8.697203 0.193271 13.14244 0.048318 5.382602 0.048318 10.755541 0.048318 16.147807v737.503499c0 5.392266 0 10.765205-0.038654 16.254106-0.019327 4.348602-0.077308 8.697203-0.193271 13.045805-0.212598 7.692193-0.628131 16.669639-2.135647 25.018954a66.243697 66.243697 0 0 1-6.232995 19.085529 61.817787 61.817787 0 0 1-27.135274 27.125611c-5.798135 2.957049-11.866851 4.947742-19.046875 6.232995-8.523259 1.517179-17.848594 1.932712-24.874001 2.125983-4.416246 0.096636-8.813166 0.164281-13.326048 0.183608-5.363275 0.038654-10.755541 0.038654-16.12848 0.038654H143.030337c-5.314957 0-10.629915 0-16.041508-0.038654a725.597994 725.597994 0 0 1-13.045804-0.173944c-7.189688-0.193271-16.524686-0.618468-24.970637-2.125983a67.045773 67.045773 0 0 1-19.191828-6.281314 61.237974 61.237974 0 0 1-15.674293-11.402999 61.411918 61.411918 0 0 1-11.383672-15.683957 67.016782 67.016782 0 0 1-6.252323-19.182164c-1.497852-8.339651-1.913385-17.278444-2.125983-24.912655a637.959177 637.959177 0 0 1-0.193271-13.094123l-0.019327-12.823543V139.870354l0.019327-12.804216c0.028991-4.377592 0.077308-8.745521 0.193271-13.11345 0.212598-7.653539 0.628131-16.592331 2.14531-24.999627a66.910483 66.910483 0 0 1 6.242659-19.14351c2.937722-5.778808 6.764491-11.055112 11.403-15.674293a61.701824 61.701824 0 0 1 15.69362-11.403 67.258371 67.258371 0 0 1 19.133847-6.252323c8.358979-1.497852 17.317098-1.913385 24.989963-2.125983 4.367929-0.115963 8.745521-0.164281 13.084459-0.193271l16.205789-0.02899h1313.036084" fill="#FFFFFF" p-id="6459"></path><path d="M436.657579 344.409244c13.693263-17.123827 22.999271-40.123097 20.544726-63.634536-20.051885 1.00501-44.520016 13.239076-58.686794 30.372566-12.717244 14.68861-23.965626 38.654236-21.037568 61.170329 22.516093 1.952039 44.993531-11.258046 59.179636-27.898695M456.941389 376.714522c-32.682157-1.952039-60.474552 18.54437-76.0812 18.54437-15.616311 0-39.523956-17.56835-65.364313-17.094836-33.648513 0.492842-64.871472 19.520389-81.946981 49.767329-35.117374 60.532534-9.267353 150.326324 24.883664 199.620139 16.592331 24.390823 36.576571 51.245854 62.90977 50.279498 24.883665-0.976019 34.634196-16.118816 64.881135-16.118817 30.227613 0 39.011788 16.118816 65.35465 15.625975 27.318881-0.483178 44.39439-24.400487 60.977057-48.810636 19.027548-27.802059 26.816376-54.647426 27.299555-56.125951-0.483178-0.483178-52.666397-20.506072-53.149575-80.526438-0.492842-50.260171 40.97349-74.167816 42.915866-75.64634-23.414804-34.634196-60.001038-38.538273-72.669964-39.523957M741.523539 308.69273c71.027159 0 120.504581 48.965254 120.504582 120.253329 0 71.548991-50.492096 120.765497-122.282677 120.765497h-78.66137v125.075445h-56.821727V308.69273h137.261192zM661.084074 502.012229h65.200033c49.477422 0 77.637033-26.632769 77.637033-72.805254 0-46.172485-28.159611-72.563665-77.385781-72.563665h-65.451285V502.021892zM876.871347 598.937726c0-46.684654 35.774496-75.356433 99.206097-78.912623l73.056507-4.309948v-20.544726c0-29.686453-20.042221-47.448075-53.526454-47.448075-31.715801 0-51.50677 15.220105-56.319222 39.069769h-51.758022c3.044021-48.201832 44.143138-83.725076 110.106592-83.725075 64.697528 0 106.047897 34.257317 106.047896 87.78377v183.936183h-52.521443v-43.891886h-1.256263c-15.481022 29.686453-49.22617 48.462749-84.237244 48.462749-52.260527 0-88.798444-32.469558-88.798444-80.420138z m172.262604-24.100917v-21.066558l-65.712202 4.058695c-32.720811 2.290263-51.245854 16.746948-51.245853 39.581937 0 23.337495 19.288464 38.557601 48.714001 38.557601 38.306348 0 68.244054-26.381516 68.244054-61.131675zM1153.268463 772.978424v-44.404054c4.049031 1.014674 13.181095 1.014674 17.751958 1.014674 25.366842 0 39.069769-10.649242 47.438411-38.055096 0-0.502505 4.83178-16.234779 4.83178-16.486031l-96.413329-267.158753h59.363243l67.490297 217.178825h1.00501l67.49996-217.178825h57.836401l-99.959855 280.852016c-22.825326 64.697528-49.216506 85.50317-104.521055 85.50317-4.570863 0-18.27379-0.512169-22.322821-1.265926z" p-id="6460"></path></svg>