<?xml version="1.0" standalone="no"?><!DOCTYPE svg PUBLIC "-//W3C//DTD SVG 1.1//EN" "http://www.w3.org/Graphics/SVG/1.1/DTD/svg11.dtd"><svg t="1769075208782" class="icon" viewBox="0 0 1152 1024" version="1.1" xmlns="http://www.w3.org/2000/svg" p-id="21011" xmlns:xlink="http://www.w3.org/1999/xlink" width="225" height="200"><path d="M96 960c-53.02 0-96-43-96-96V160c0-53.02 42.98-96 96-96h960c53 0 96 42.98 96 96v4.86h-151l-34 95.14-33.8-95.14h-194.4v126.34l-56.2-126.34h-157.2L362 534.2h131.6v327.6h407.4l63.8-70.2 63.8 70.2H1152v2.2c0 53-43 96-96 96H96z m869.2-232l-84.4 92.6h-99.8l135-143.4-135-145h102.8l83 93.4 84-93.4H1152l-136 144.2 136 144.2h-102.8l-84-92.6z m186.8-134.2v166.6l-78.6-83.8 78.6-82.8z m-536.8 160.4h166v66.4h-244V534.2h244v66.2h-166v44.8h161.8v64.6h-161.8v44.6-0.2z m459.4-462.8l-73.8 201.2H932L858.4 292v200.6h-77.4V206h122.4l63.8 178.6 64.4-178.6H1152v286.6h-77.4V291.4z m-405.6 143.8h-131.8l-23.8 57.4h-86L552.2 206h102.4l126.6 286.6h-88.2l-24-57.4z m-66-158.2L564 370.8h77.8l-38.8-93.8z" p-id="21012" fill="#1296db"></path></svg>