<?xml version="1.0" standalone="no"?><!DOCTYPE svg PUBLIC "-//W3C//DTD SVG 1.1//EN" "http://www.w3.org/Graphics/SVG/1.1/DTD/svg11.dtd"><svg t="1769075235547" class="icon" viewBox="0 0 1662 1024" version="1.1" xmlns="http://www.w3.org/2000/svg" p-id="22251" xmlns:xlink="http://www.w3.org/1999/xlink" width="324.609375" height="200"><path d="M311.11419 0h397.98c55.171 0 90.626 47.293 74.868 102.444L598.75019 918.101c-11.818 59.111-66.99 102.444-122.141 102.444H78.62919c-55.172 0-90.627-47.272-74.869-102.444l185.192-815.657C200.79019 47.273 255.94219 0 311.11419 0z m0 0" fill="#E03333" p-id="22252"></path><path d="M689.39619 0h492.526c59.11 0 31.515 47.293 19.697 102.444l-200.95 815.657c-15.757 59.111-7.879 102.444-70.93 102.444H441.13519c-59.091 0-98.505-47.272-82.828-102.444l201.05-815.657C571.17419 47.273 630.30619 0 689.39619 0z m0 0" fill="#004889" p-id="22253"></path><path d="M1177.98219 0h397.98c55.172 0 90.626 47.293 74.869 102.444l-185.192 815.657c-11.818 59.111-66.99 102.444-122.142 102.444h-398.04c-55.172 0-90.626-47.272-74.869-102.444l185.253-815.657C1067.65919 47.273 1122.83019 0 1177.98219 0z m0 0" fill="#008089" p-id="22254"></path><path d="M1095.23519 744.727h39.394l11.818-35.454h-39.374z m31.515-98.505l-11.818 43.334s15.757-7.88 23.636-7.88 19.697-4.04 19.697-4.04l7.879-27.575z m19.697-63.05l-11.818 39.394s15.757-7.88 23.636-7.88c7.879-3.939 19.697-3.939 19.697-3.939l7.879-27.575z m86.687 0l-51.212 161.616h11.818l-11.818 31.475h-11.818l-3.94 11.818h-47.273l3.94-11.818h-98.586l11.818-31.516h11.818l51.233-161.616 11.818-31.535h51.293l-3.94 15.758a98.202 98.202 0 0 1 27.576-11.778c3.94-3.94 74.869-3.94 74.869-3.94l-11.818 31.536z m0 0" fill="#FFFFFF" p-id="22255"></path><path d="M1260.73019 551.636h51.232v19.697c0 3.94 4.04 3.94 7.879 3.94h11.818l-11.818 31.535h-27.576c-23.636 0-35.475-7.879-31.535-19.697z m-15.758 145.839h-51.212l7.879-27.576h59.111l7.879-23.636h-55.172l11.818-31.617h157.576l-11.818 31.536h-51.192l-11.818 23.636h51.212l-7.859 27.657h-55.171l-11.819 11.818h23.637l3.94 35.454v7.88h19.696l-7.879 35.454h-27.575c-3.94 0-7.88-3.94-11.819-3.94s-7.878-3.939-7.878-11.818l-4.04-35.454-27.496 35.353c-7.879 11.818-19.697 19.697-39.394 19.697h-35.474l7.878-31.535h15.758c3.94 0 7.879 0 11.818-3.94 3.94 0 3.94-4.04 7.879-7.878z m-547.717-74.91h133.98l-11.818 31.516h-51.233l-7.878 23.636h55.171l-11.818 31.536h-55.172l-11.818 43.333c0 4.04 11.818 4.04 19.697 4.04l27.576-4.04-11.818 35.454h-78.788c-3.94 0-7.879-3.939-11.818-7.878s-3.94-7.88-3.94-11.819l15.758-55.171h-23.637l11.819-31.515h27.575l7.88-23.637h-31.536z m145.798-55.171l-11.818 31.515h-74.869l-7.879 7.879c-3.94 3.94-3.94 0-7.878 3.94s-11.819 7.878-23.637 7.878h-23.636l11.818-31.515h15.758c4.04 0 4.04-3.94 7.878-7.879l11.819-23.636h55.151l-7.879 11.818z m47.293 51.293a98.525 98.525 0 0 1 39.394-15.758h43.353l3.94-15.757h-74.869z m74.869 15.757h-74.87l-3.938 15.758h78.787z m-98.505-82.828h47.292l-7.878 23.637s15.757-11.819 23.636-15.758c11.818-4.04 31.535-7.879 31.535-7.879h74.87l-23.637 82.828c-3.94 11.819-7.879 23.637-11.818 27.576s-3.94 7.879-11.819 11.818a29.798 29.798 0 0 1-15.757 3.94h-94.606l-19.697 63.05c0 7.88-3.94 7.88 0 11.818 0 0 4.04 4.04 7.879 4.04l31.515-4.04-19.697 35.455h-59.111c-3.94 0-11.819 0-15.758-3.94s-7.879-7.878-7.879-11.818a29.737 29.737 0 0 1 4.04-15.757z m0 0" fill="#FFFFFF" p-id="22256"></path><path d="M1012.48719 673.798l-3.94 19.636c0 7.88-4.04 11.819-7.878 15.758s-11.818 7.879-23.636 7.879h-27.536v23.636c0 7.879 0 7.879 3.94 7.879h35.454l-7.878 39.394h-27.617c-19.697 0-35.474 0-39.394-3.94-7.878-3.939-7.878-7.878-7.878-15.757v-94.485h47.293v19.636h19.697l3.939-4.04 3.94-15.758z m-626.505-397.98c0 7.879-31.535 145.778-31.535 145.778-3.94 27.596-11.818 47.293-27.576 63.05-7.879 7.88-19.697 11.819-31.535 11.819-19.697 0-31.515-7.88-31.515-27.596v-7.758l3.94-39.414 35.454-141.838c-55.152 0-66.99-3.94-66.99-3.94v7.879L204.73019 425.556l-3.94 11.818-4.04 39.394c0 11.818 4.04 19.697 7.879 31.535 15.757 27.576 55.171 31.515 78.788 31.515 27.596 0 55.171-7.879 74.868-19.697 31.515-19.697 39.394-51.232 47.273-78.788l4.04-15.757s31.516-130.04 35.455-149.738zM559.35619 539.9h-51.232c3.94-7.879 3.94-19.697 7.878-27.576l4.04-11.818c3.94-19.697 7.88-43.353 7.88-51.232 0-4.04 0-15.758-11.818-15.758-3.94 0-11.819 4.04-15.758 4.04-3.94 11.819-7.879 43.334-11.818 55.152-3.94 31.535-7.879 31.535-7.879 47.293h-55.273c4.04-15.758 7.879-35.475 11.818-55.152 11.819-47.292 11.819-66.99 15.758-90.626 23.636-3.94 31.535-3.94 55.172-7.879l3.94 3.94-3.94 15.757c3.94-3.939 7.878-3.939 11.818-7.878 11.818-7.88 27.576-7.88 35.454-7.88 11.819 0 23.637 3.94 27.576 15.758s0 27.576-3.94 59.112l-7.878 7.878c-3.94 35.455-3.94 39.394-11.818 66.99z m82.828-31.515h-55.252c4.04-11.818 4.04-15.758 7.879-23.637 0-4.04 3.939-7.878 3.939-23.636 4.04-15.757 4.04-27.596 7.879-39.414 0-7.879 3.94-19.697 3.94-27.576 11.817 0 19.696-3.94 27.575-3.94s15.757-3.939 27.596-3.939l-7.879 31.516c-3.94 11.818-3.94 19.697-7.879 31.535-3.94 23.636-7.878 31.515-7.878 35.454 3.939 7.88 3.939 7.88 0 23.637z m133.98-78.788c0 3.94-4.04 27.576-11.818 35.455-4.04 7.878-11.818 11.818-15.758 11.818 0 0-11.818 0-11.818-15.758 0-7.879 0-15.757 4.04-23.636 3.94-23.637 11.819-47.293 27.576-47.293s15.758 15.757 7.88 39.394z m55.172 3.94c7.879-35.455 0-47.273-3.94-59.092-11.818-15.757-31.535-19.697-51.232-19.697-11.818 0-39.414 0-63.05 23.637-15.758 15.757-23.637 35.454-27.596 55.151s-11.819 59.111 23.636 70.93c11.818 4.04 23.636 7.878 35.455 7.878a92.303 92.303 0 0 0 66.99-27.575c11.818-15.758 19.696-43.354 19.696-51.233z m547.717-78.789c-27.576 3.94-35.455 7.88-59.111 7.88v7.878c-3.94-7.879-7.879-11.818-19.697-15.758s-39.414 0-59.111 23.637c-15.758 15.757-23.637 35.454-27.596 55.151s-11.818 59.111 23.636 70.93c11.818 4.04 19.697 7.878 27.596 4.04 11.818 0 19.697-7.879 27.576-11.818 0 3.94 0 7.879-3.94 7.879h59.071c4.04-23.637 7.879-43.334 15.758-86.687 4.04-19.697 11.818-39.394 15.757-63.05z m-82.828 114.263c-3.94 7.879-15.758 11.818-19.697 11.818 0 0-11.818 0-11.818-15.757 0-7.88 0-15.758 3.939-23.637 3.94-23.636 11.818-47.293 27.576-47.293 11.818 0 15.757 11.819 15.757 27.576a29.818 29.818 0 0 1-3.94 15.758c0 7.879-3.938 15.757-3.938 23.636a8.485 8.485 0 0 0-7.88 7.879zM977.03319 539.9H925.80019c0-7.879 3.94-19.697 7.88-27.576l3.939-11.818c3.939-19.697 7.878-43.353 7.878-51.232 0-4.04 0-15.758-11.818-15.758-4.04 0-11.818 4.04-15.778 4.04-3.939 11.819-7.878 43.334-11.818 55.152-3.94 31.535-7.878 31.535-7.878 47.293h-55.152c4.04-15.758 7.879-35.475 11.818-55.152 11.798-47.474 11.798-67.171 15.839-90.828 23.636-3.94 31.535-3.94 55.171-7.879v3.94l-3.94 15.757c3.94-3.939 7.88-3.939 11.82-7.878 11.817-7.88 27.575-7.88 35.454-7.88 11.818 0 23.636 3.94 27.596 15.758s0 27.576-4.04 59.111l-3.94 7.88c-7.879 35.454-7.879 39.393-11.818 66.99z m0 0" fill="#FFFFFF" p-id="22257"></path><path d="M1130.71019 275.818h-86.687v7.879l-15.758 78.788-39.414 173.374h63.05c0-7.88 11.819-55.172 11.819-55.172l7.878-35.455 4.04-3.94h3.94c35.455 0 70.93 0 102.445-23.635 19.697-15.758 35.454-39.394 39.394-66.99V327.03c0-11.818-4.04-19.697-7.88-27.596-15.757-23.636-47.272-23.636-82.827-23.636z m23.636 82.828a72.303 72.303 0 0 1-27.596 39.415c-11.818 7.878-27.576 7.878-39.394 7.878h-7.879v-4.02s15.758-78.788 15.758-74.868v-15.758l7.879 4.04 35.454 3.94c11.818 3.94 19.697 19.697 15.758 39.394zM646.04319 401.92c15.757-11.818 15.757-23.636 3.94-31.535s-31.516-3.94-47.273 4.04-15.758 23.637-4.04 31.515 31.514 7.88 47.292-3.939z m890.525-82.828c-27.576 3.94-31.535 3.94-55.172 7.879-15.757 43.333-15.757 31.515-31.515 66.99v-3.94l-4.04-70.93-3.94-3.938c-27.575 3.939-27.575 7.878-51.212 7.878v4.04c3.94 15.758 3.94 11.819 3.94 39.395 0 11.818 4.04 27.575 4.04 39.394 3.94 19.697 3.94 31.535 7.879 63.05-15.758 27.596-19.697 39.414-35.455 63.05l-15.757 19.698-3.94 3.939h-11.818l-11.818 35.475h31.515c19.697 0 31.536-7.88 39.414-19.697l19.657-35.515 3.94-4.04c11.818-31.516 114.282-212.768 114.282-212.768z m0 0" fill="#FFFFFF" p-id="22258"></path></svg>