<?xml version="1.0" standalone="no"?><!DOCTYPE svg PUBLIC "-//W3C//DTD SVG 1.1//EN" "http://www.w3.org/Graphics/SVG/1.1/DTD/svg11.dtd"><svg t="1769133651783" class="icon" viewBox="0 0 1602 1024" version="1.1" xmlns="http://www.w3.org/2000/svg" p-id="37684" xmlns:xlink="http://www.w3.org/1999/xlink" width="469.3359375" height="300"><path d="M1292.154435 515.33913c0-229.064348-193.981217-387.428174-406.483478-387.33913h-182.939827c-215.04-0.089043-392.058435 158.319304-392.058434 387.33913 0 209.519304 177.018435 381.68487 392.058434 380.66087h182.895305c212.546783 1.024 406.483478-171.186087 406.483478-380.66087z" fill="#0079BE" p-id="37685"></path><path d="M703.888696 160.456348c-196.518957 0-355.728696 157.384348-355.817739 351.543652 0.044522 194.159304 159.298783 351.49913 355.817739 351.543652 196.563478-0.044522 355.862261-157.384348 355.862261-351.543652s-159.298783-351.49913-355.862261-351.543652z" fill="#FFFFFF" p-id="37686"></path><path d="M478.96487 511.109565c0.222609-94.920348 60.193391-175.86087 144.829217-207.961043v415.833043c-84.591304-32.100174-144.65113-112.996174-144.829217-207.916522z m306.220521 208.005565V303.148522c84.680348 32.055652 144.740174 113.040696 144.918261 207.961043-0.178087 94.96487-60.237913 175.86087-144.918261 208.005565z" fill="#0079BE" p-id="37687"></path></svg>